<?xml version="1.0" encoding="UTF-8"?>
<svg xmlns="http://www.w3.org/2000/svg" viewBox="0 0 295 300" width="295" height="300">
<path d="M197.39 27.33C200.68 30.67 203.97 34 207.27 37.33C210.05 41.03 213.96 45.47 218.5 46.83C219.24 44.14 219.98 41.44 220.72 38.74C221.26 33.83 221.8 28.91 222.34 24C222.35 22.6 221.96 18.62 224.67 19.18C227.25 19.71 229.08 23.68 230.14 25.72C232.95 31.08 237.92 36.66 242.37 40.79C244.04 42.33 252.64 48.02 252.85 49.3C253.56 53.73 246.41 53.07 245.1 55.5C246.46 61.05 255.75 67.06 260.46 69.73C262.74 71.03 266.98 71.64 267.7 74.5C266.25 76.33 265.06 77.76 262.73 78.51C260.63 79.18 257.4 78.54 255.83 80.23C255.25 82.75 257.43 84.44 259.08 86.09C263.19 90.21 269.11 93.57 274.36 95.8C276.05 96.51 280.01 97.1 280.79 99.04C283.43 105.57 267.38 106.16 267.11 109.21C266.92 111.53 271.03 114.83 272.58 116.26C276.16 119.56 280.13 122.36 284.33 124.83C287.73 126.82 291.07 127.77 293.85 130.5C293.57 135.74 286.53 139.28 282.02 139.83C279.59 140.12 275.12 139.54 274.11 142.56C273.18 145.33 275.31 148.62 276.56 150.94C279.31 156.04 284.32 161.49 282.63 167.79C272.93 204.04 242.78 243.91 212.04 265.85C204.24 271.43 195.91 276.17 187.79 281.28C178.9 286.87 168.65 291.21 158.51 294.64C155.08 295.8 150.81 298.35 147.17 298.45C143.23 298.56 132.68 293.53 128.52 291.96C111.21 285.43 94.02 275.42 79.38 263.78C75.93 261.04 64.73 250.03 62.05 248.89C59.74 246.47 57.42 244.04 55.1 241.62C53.82 239.13 50.88 237.22 49.12 235.04C45.55 230.58 41.82 226.06 38.49 221.35C27.1 205.24 16.36 186.99 11.54 167.62C9.24 158.4 22.25 149.57 19.96 142.52C19.19 140.15 16.15 140.2 14.17 139.96C9.9 139.42 -0.47 136.83 0.65 130.51C1.14 127.74 7.22 126.19 9.5 125.02C14.67 122.38 25.08 115.09 27.04 109.5C25.81 105.42 12 106.14 13.14 99.56C13.54 97.29 17.98 96.51 19.71 95.85C24.66 93.96 30.65 90.42 34.46 86.63C35.86 85.24 39.58 82.58 38.25 80.26C37.35 78.68 34.21 79.18 32.68 78.83C29.73 78.14 28.21 76.83 26.5 74.48C27.22 71.63 31.33 71.06 33.62 69.78C38.04 67.3 48.02 60.75 48.96 55.5C47.71 52.63 42.23 54.49 41.17 49.5C43.84 45.56 50.3 42.42 53.88 38.72C57.97 34.49 65.82 20.92 69.5 19.11C70.21 19.63 70.93 20.16 71.64 20.69C71.95 24.78 72.27 28.87 72.58 32.96C72.31 37.88 74.14 43.97 75.9 48.58C76.62 50.48 79.06 53.08 77.59 55.08C76.26 56.89 73.34 56.24 71.5 56.24C70.43 57.34 70.09 58.24 70.62 59.75C70.9 65.24 73.94 71.12 76.93 75.62C77.41 76.14 77.89 76.65 78.37 77.17C82.05 76.33 88.26 69.81 89.02 66.17C87.69 63.47 83.29 65.27 82.92 61.17C83.95 59.98 85.59 59.35 86.82 58.32C90.34 55.38 93.38 51.47 95.8 47.65C97 45.75 98.09 42.56 100.5 42.07C102.88 43.31 102.46 46.89 103.24 49.19C104.71 53.46 108.37 56.47 109.82 60.5C108.26 62.65 106.28 62.07 104.35 63.5C103.78 65.87 105.31 69.68 107.5 70.87C113.18 67.05 118.81 63.09 125.03 60.18C127.83 58.87 133.37 56.6 134.88 53.73C138.42 46.98 127.04 35.34 121.61 32.56C119.14 31.3 115.97 30.5 113.17 30.56C108.9 30.65 104.81 32.06 100.5 31.88C90.51 31.48 79.75 23.59 83.9 12.42C90.48 -5.29 119.56 2.31 131.96 8.2C135.58 9.92 141.13 14.02 144.5 14.98C146.43 12.8 147.84 10.76 150.55 9.37C154.79 7.18 160.66 7.68 165.17 8.7C178.11 11.65 187.18 19.3 197.39 27.33ZM233.05 90.97C232.29 89.82 231.52 88.66 230.76 87.5C231.97 86.5 233.17 85.5 234.38 84.5C233.15 83.83 231.93 83.17 230.71 82.5C230.97 81.49 231.24 80.49 231.5 79.48C226.11 77.63 225.31 85.87 225.04 88.85C224.75 88.91 224.46 88.96 224.17 89.02C213.37 81.72 226.21 74.82 232.79 71.5C233.14 65.5 222.4 59.99 217.77 58.08C214.17 56.6 210.47 55.28 207.52 52.66C204.55 50.02 202.19 46.27 199.57 43.26C192.65 35.32 184.52 27.41 175.23 22.27C170.55 19.68 164.6 17.16 159.17 17.25C157.25 17.28 153.88 17.8 153.08 19.9C150.62 26.3 166.25 24.78 169.37 26.15C176.67 29.35 188.77 42.17 188.61 50.5C186.94 50.99 185.22 50.51 183.5 50.45C174.92 50.17 171.06 46.24 164.56 41.28C151.66 31.43 138.1 20.23 122.6 14.86C116.05 12.59 101.81 7.51 96.28 13.78C92.9 17.6 96.7 20.63 100.44 21.44C103.79 22.17 106.67 20.62 109.84 20.04C113.53 19.38 117.25 20.08 120.79 21.08C133.5 24.67 147.05 39.38 148.01 52.83C148.5 59.68 142.99 63.37 137.65 66.16C128.36 71.03 119.11 76.37 110.38 82.21C75.09 105.83 47.23 146.42 56.77 190.79C58.91 200.72 62.36 210.12 67.74 218.76C69.14 221.02 71.25 226.1 73.68 227.17C75.06 225.5 73.42 219.74 73.34 217.5C73.06 209.45 73.74 201.3 75.19 193.39C80.51 164.29 99.79 140.26 127.17 129.32C158.2 116.93 191.21 131.83 221.25 118.78C230.51 114.76 249.7 101.82 237.5 90.52C236.02 90.67 234.53 90.82 233.05 90.97ZM192.95 86.7C190.86 84.93 188.35 84.63 187.63 81.5C189.49 80.17 191.34 78.83 193.2 77.5C191.3 76.5 189.4 75.5 187.5 74.5C188.62 73.5 189.74 72.5 190.86 71.5C185.5 65.83 179.27 74.21 177.38 78.34C177.07 78.4 176.77 78.45 176.46 78.5C174.91 76.61 169.32 74.48 168.91 73.17C167.87 69.83 180.29 64.98 182.89 64.45C192.21 62.52 196.73 69.78 203.01 74.83C204.29 75.86 209.29 78.19 209.74 79.09C210.42 80.44 209.22 82.2 208.03 82.85C206.5 83.69 204.51 83.37 202.84 83.72C199.76 84.36 196.13 87.49 192.95 86.7ZM172.15 91.5C171.13 92.39 170.11 93.28 169.09 94.17C169.47 96.96 172.66 99.42 174.72 101.12C182.3 107.38 194.06 108.05 203.5 108.05C205.98 108.05 214.28 106.93 215.69 108.5C213.66 111.75 203.84 113.74 200.06 114.18C187.44 115.66 175.55 114.41 166.16 105.01C163.27 102.12 161.95 98.12 159.26 95.24C156.97 92.79 153.56 95.17 151.48 92.5C152.51 86.62 170.98 85.85 172.15 91.5ZM74.5 161.95C67.92 155.91 73.89 138.43 78.65 132.47C81.31 129.15 86.26 126.1 90.62 128.21C94 129.85 94.27 133.68 92.92 136.77C90.25 142.93 84.65 147.91 81.12 153.6C79.72 155.87 77.39 161.84 74.5 161.95ZM157.99 162.33C157.17 164.97 157.42 169.02 158.9 171.36C160.15 177.69 169.75 180.74 175.17 181.03C186.59 181.63 199.18 179.25 208.35 172.19C211.25 169.95 215.86 166.84 216.9 163.09C217.33 161.57 216.08 159.66 214.33 159.85C210.17 160.29 194.26 165.65 195.15 156.5C198.89 154.24 203.01 149.08 205.18 145.34C205.96 143.98 207.52 142.31 206.57 140.83C203.32 141.22 200.09 142.17 196.82 142.6C183.95 144.26 168.94 142.76 160.82 155C159.37 157.2 157.98 159.61 157.99 162.33ZM134.83 167.37C131.5 168.64 129.22 174.9 127.79 177.95C121.56 191.17 122.68 205.72 126.07 219.48C131.69 242.27 156.01 257.12 178.85 253.78C190.33 252.1 200.83 246 209.95 239.13C213.88 236.17 225.56 226.7 227.13 222.5C225.76 219.86 222.84 217.48 220.56 215.62C205.49 203.36 186.07 206.34 167.83 203.98C163.73 203.45 158.61 202.47 154.92 200.57C153.4 199.79 150.59 197.6 149.17 198.5C150.68 204.33 152.87 209.57 156.28 214.55C158.12 217.23 162.58 220.35 163.11 223.5C161.63 225.77 157.86 223.49 156 222.5C149.79 219.19 145.32 214.5 141.54 208.63C136.33 200.51 134.46 189.64 134.27 180.17C134.2 176.76 135.65 170.22 134.83 167.37ZM223.98 263.35C225.16 263.38 226.33 263.4 227.5 263.42C226.99 264.38 226.47 265.33 225.96 266.29C225.96 267.1 225.96 267.91 225.95 268.72C225.8 268.85 225.65 268.99 225.5 269.13C224.54 267.47 225.75 265.54 223.73 264.5C223.81 264.12 223.9 263.73 223.98 263.35ZM232.97 264.67C233.15 264.38 233.32 264.1 233.5 263.81C235.16 264.44 235 267.48 234.5 268.91C234.06 268.39 233.61 267.86 233.17 267.34C232.61 267.97 232.06 268.61 231.5 269.25C231.17 268.52 230.83 267.79 230.5 267.06C230.31 267.6 230.12 268.14 229.92 268.68C229.56 268.72 229.2 268.75 228.83 268.78C228.08 267.58 228.34 264.6 229.5 263.63C230.1 264.7 230.71 265.77 231.31 266.83C232.59 266.74 232.7 265.77 232.97 264.67Z" fill="#000e35" fill-rule="evenodd" stroke="#000e35" stroke-width="0.25" stroke-linejoin="round"/>
<path d="M225.04 88.85C227.06 90.91 229.66 91.37 232.5 91.75C232.68 91.49 232.87 91.23 233.05 90.97C234.53 90.82 236.02 90.67 237.5 90.52C249.7 101.82 230.51 114.76 221.25 118.78C191.21 131.83 158.2 116.93 127.17 129.32C99.79 140.26 80.51 164.29 75.19 193.39C73.74 201.3 73.06 209.45 73.34 217.5C73.42 219.74 75.06 225.5 73.68 227.17C71.25 226.1 69.14 221.02 67.74 218.76C62.36 210.12 58.91 200.72 56.77 190.79C47.23 146.42 75.09 105.83 110.38 82.21C119.11 76.37 128.36 71.03 137.65 66.16C142.99 63.37 148.5 59.68 148.01 52.83C147.05 39.38 133.5 24.67 120.79 21.08C117.25 20.08 113.53 19.38 109.84 20.04C106.67 20.62 103.79 22.17 100.44 21.44C96.7 20.63 92.9 17.6 96.28 13.78C101.81 7.51 116.05 12.59 122.6 14.86C138.1 20.23 151.66 31.43 164.56 41.28C171.06 46.24 174.92 50.17 183.5 50.45C185.22 50.51 186.94 50.99 188.61 50.5C188.77 42.17 176.67 29.35 169.37 26.15C166.25 24.78 150.62 26.3 153.08 19.9C153.88 17.8 157.25 17.28 159.17 17.25C164.6 17.16 170.55 19.68 175.23 22.27C184.52 27.41 192.65 35.32 199.57 43.26C202.19 46.27 204.55 50.02 207.52 52.66C210.47 55.28 214.17 56.6 217.77 58.08C222.4 59.99 233.14 65.5 232.79 71.5C226.21 74.82 213.37 81.72 224.17 89.02C224.46 88.96 224.75 88.91 225.04 88.85ZM177.38 78.34C177.31 78.75 177.24 79.15 177.17 79.56C180.58 83.09 182.97 86.21 188.09 87.13C189.58 87.39 191.95 88.12 192.95 86.7C196.13 87.49 199.76 84.36 202.84 83.72C204.51 83.37 206.5 83.69 208.03 82.85C209.22 82.2 210.42 80.44 209.74 79.09C209.29 78.19 204.29 75.86 203.01 74.83C196.73 69.78 192.21 62.52 182.89 64.45C180.29 64.98 167.87 69.83 168.91 73.17C169.32 74.48 174.91 76.61 176.46 78.5C176.77 78.45 177.07 78.4 177.38 78.34ZM172.15 91.5C170.98 85.85 152.51 86.62 151.48 92.5C153.56 95.17 156.97 92.79 159.26 95.24C161.95 98.12 163.27 102.12 166.16 105.01C175.55 114.41 187.44 115.66 200.06 114.18C203.84 113.74 213.66 111.75 215.69 108.5C214.28 106.93 205.98 108.05 203.5 108.05C194.06 108.05 182.3 107.38 174.72 101.12C172.66 99.42 169.47 96.96 169.09 94.17C170.11 93.28 171.13 92.39 172.15 91.5ZM74.5 161.95C77.39 161.84 79.72 155.87 81.12 153.6C84.65 147.91 90.25 142.93 92.92 136.77C94.27 133.68 94 129.85 90.62 128.21C86.26 126.1 81.31 129.15 78.65 132.47C73.89 138.43 67.92 155.91 74.5 161.95ZM134.83 167.37C135.65 170.22 134.2 176.76 134.27 180.17C134.46 189.64 136.33 200.51 141.54 208.63C145.32 214.5 149.79 219.19 156 222.5C157.86 223.49 161.63 225.77 163.11 223.5C162.58 220.35 158.12 217.23 156.28 214.55C152.87 209.57 150.68 204.33 149.17 198.5C150.59 197.6 153.4 199.79 154.92 200.57C158.61 202.47 163.73 203.45 167.83 203.98C186.07 206.34 205.49 203.36 220.56 215.62C222.84 217.48 225.76 219.86 227.13 222.5C225.56 226.7 213.88 236.17 209.95 239.13C200.83 246 190.33 252.1 178.85 253.78C156.01 257.12 131.69 242.27 126.07 219.48C122.68 205.72 121.56 191.17 127.79 177.95C129.22 174.9 131.5 168.64 134.83 167.37Z" fill="#fecd00" fill-rule="evenodd" stroke="#fecd00" stroke-width="0.25" stroke-linejoin="round"/>
<path d="M71.64 20.69C71.93 20.9 72.21 21.12 72.5 21.33C72.53 25.21 72.55 29.08 72.58 32.96C72.27 28.87 71.95 24.78 71.64 20.69ZM222.34 24C221.8 28.91 221.26 33.83 220.72 38.74C220.59 37.99 220.46 37.25 220.33 36.5C220.67 36.17 221 35.83 221.33 35.5C221.33 32.34 220.18 26.46 222.34 24ZM197.39 27.33C198.86 27.35 207.28 35.91 207.27 37.33C203.97 34 200.68 30.67 197.39 27.33ZM70.62 59.75C71.3 62 71.99 64.25 72.67 66.5C74.09 69.54 75.51 72.58 76.93 75.62C73.94 71.12 70.9 65.24 70.62 59.75ZM192.95 86.7C191.95 88.12 189.58 87.39 188.09 87.13C182.97 86.21 180.58 83.09 177.17 79.56C177.24 79.15 177.31 78.75 177.38 78.34C179.27 74.21 185.5 65.83 190.86 71.5C189.74 72.5 188.62 73.5 187.5 74.5C189.4 75.5 191.3 76.5 193.2 77.5C191.34 78.83 189.49 80.17 187.63 81.5C188.35 84.63 190.86 84.93 192.95 86.7ZM233.05 90.97C232.87 91.23 232.68 91.49 232.5 91.75C229.66 91.37 227.06 90.91 225.04 88.85C225.31 85.87 226.11 77.63 231.5 79.48C231.24 80.49 230.97 81.49 230.71 82.5C231.93 83.17 233.15 83.83 234.38 84.5C233.17 85.5 231.97 86.5 230.76 87.5C231.52 88.66 232.29 89.82 233.05 90.97ZM157.99 162.33C158.1 164.72 158.22 167.11 158.33 169.5C158.67 169.83 159 170.17 159.33 170.5C159.19 170.79 159.04 171.07 158.9 171.36C157.42 169.02 157.17 164.97 157.99 162.33ZM55.1 241.62C57.42 244.04 59.74 246.47 62.05 248.89C60.92 248.78 55.24 242.89 55.1 241.62ZM232.97 264.67C232.7 265.77 232.59 266.74 231.31 266.83C230.71 265.77 230.1 264.7 229.5 263.63C228.34 264.6 228.08 267.58 228.83 268.78C229.2 268.75 229.56 268.72 229.92 268.68C229.95 269.83 229.6 269.93 228.5 270C228.17 268.33 227.83 266.67 227.5 265C226.99 265.43 226.47 265.86 225.96 266.29C226.47 265.33 226.99 264.38 227.5 263.42C226.33 263.4 225.16 263.38 223.98 263.35C226.21 263.29 228.44 263.23 230.67 263.17C230.94 264.11 231.22 265.06 231.5 266C231.99 265.56 232.48 265.11 232.97 264.67ZM223.98 263.35C223.9 263.73 223.81 264.12 223.73 264.5C225.75 265.54 224.54 267.47 225.5 269.13C225.65 268.99 225.8 268.85 225.95 268.72C225.86 269.09 225.76 269.46 225.67 269.83C225.22 269.72 224.78 269.61 224.33 269.5C224 267.72 223.67 265.94 223.33 264.17C223.55 263.89 223.77 263.62 223.98 263.35Z" fill="#ffffff" fill-rule="evenodd" stroke="#ffffff" stroke-width="0.25" stroke-linejoin="round"/>
</svg>